<svg width="48" height="48" viewBox="0 0 48 48" fill="none" xmlns="http://www.w3.org/2000/svg">
<g clip-path="url(#clip0_635_172)">
<path d="M32.5161 0H15.4839C6.93236 0 0 6.93236 0 15.4839V32.5161C0 41.0676 6.93236 48 15.4839 48H32.5161C41.0676 48 48 41.0676 48 32.5161V15.4839C48 6.93236 41.0676 0 32.5161 0Z" fill="white"/>
<mask id="mask0_635_172" style="mask-type:luminance" maskUnits="userSpaceOnUse" x="6" y="6" width="36" height="36">
<path d="M6.00001 41.2258H42V6.96777H6.00001V41.2258Z" fill="white"/>
</mask>
<g mask="url(#mask0_635_172)">
<path fill-rule="evenodd" clip-rule="evenodd" d="M18.7317 21.2915C19.2975 21.2915 19.7561 21.7852 19.7561 22.3945V26.2045C19.7561 26.8138 19.2975 27.3076 18.7317 27.3076C18.166 27.3076 17.7073 26.8138 17.7073 26.2045V22.3945C17.7073 21.7852 18.166 21.2915 18.7317 21.2915Z" fill="#3ACBAE"/>
<path fill-rule="evenodd" clip-rule="evenodd" d="M22.2439 19.2861C22.8097 19.2861 23.2682 19.752 23.2682 20.3266V28.2724C23.2682 28.847 22.8097 29.3129 22.2439 29.3129C21.6782 29.3129 21.2195 28.847 21.2195 28.2724V20.3266C21.2195 19.752 21.6782 19.2861 22.2439 19.2861Z" fill="#3ACBAE"/>
<path fill-rule="evenodd" clip-rule="evenodd" d="M25.4634 20.1455C26.0292 20.1455 26.4879 20.6214 26.4879 21.2083V27.3908C26.4879 27.9776 26.0292 28.4534 25.4634 28.4534C24.8977 28.4534 24.439 27.9776 24.439 27.3908V21.2083C24.439 20.6214 24.8977 20.1455 25.4634 20.1455Z" fill="#3ACBAE"/>
<path fill-rule="evenodd" clip-rule="evenodd" d="M28.9756 21.2915C29.5413 21.2915 30 21.7852 30 22.3945V26.2045C30 26.8138 29.5413 27.3076 28.9756 27.3076C28.4098 27.3076 27.9513 26.8138 27.9513 26.2045V22.3945C27.9513 21.7852 28.4098 21.2915 28.9756 21.2915Z" fill="#3ACBAE"/>
<path fill-rule="evenodd" clip-rule="evenodd" d="M24.8077 37.0113C26.8792 37.0113 28.5594 35.4136 28.5594 33.4411C28.5594 31.3359 29.5475 29.8517 30.8555 28.9465C32.0735 28.103 33.4819 27.8141 34.451 27.7899H34.4752H34.4992C36.5706 27.7899 38.251 26.1921 38.251 24.2199C38.251 22.2474 36.5719 20.6497 34.4992 20.6497C33.463 20.6497 32.6234 19.8509 32.6234 18.8646C32.6234 17.8785 33.463 17.0796 34.4992 17.0796C38.6421 17.0796 42.0014 20.2763 42.0014 24.2185C42.0014 28.1609 38.6586 31.3419 34.5285 31.3576C34.1412 31.3709 33.529 31.5087 33.0615 31.8314C32.6768 32.0973 32.3098 32.5312 32.3098 33.4399C32.3098 37.3823 28.9506 40.579 24.8077 40.579C20.665 40.579 17.3057 37.3823 17.3057 33.4399C17.3057 32.4538 18.1452 31.6548 19.1816 31.6548C20.2179 31.6548 21.0573 32.4538 21.0573 33.4399C21.0573 35.4112 22.7363 37.0101 24.809 37.0101L24.8077 37.0113Z" fill="#3ACBAE"/>
<path fill-rule="evenodd" clip-rule="evenodd" d="M15.3779 29.3273C15.3779 30.3137 14.5384 31.1124 13.502 31.1124C9.35924 31.1124 6.00003 27.9158 6.00003 23.9734C6.00003 20.031 9.24748 16.942 13.2938 16.8368C13.328 16.8356 13.3623 16.8344 13.3979 16.8344C14.3949 16.8344 14.8762 16.4694 15.1709 16.0827C15.5315 15.6101 15.6801 14.9926 15.6903 14.6082C15.6903 14.5901 15.6903 14.5732 15.6928 14.5551C15.8021 10.7033 19.1181 7.61304 23.1923 7.61304C27.2665 7.61304 30.6943 10.8097 30.6943 14.752C30.6943 15.7383 29.8548 16.5371 28.8184 16.5371C27.7821 16.5371 26.9427 15.7383 26.9427 14.752C26.9427 12.7809 25.2637 11.1819 23.191 11.1819C21.1183 11.1819 19.4394 12.7797 19.4394 14.752C19.4394 14.8342 19.433 14.914 19.4228 14.9938C19.3467 15.9099 19.0139 17.1196 18.2037 18.182C17.2664 19.4088 15.75 20.3442 13.6074 20.4021C13.5719 20.4034 13.5376 20.4046 13.5008 20.4046C11.4294 20.4046 9.74914 22.0023 9.74914 23.9746C9.74914 25.947 11.4281 27.5448 13.5008 27.5448C14.5371 27.5448 15.3766 28.3435 15.3766 29.3299L15.3779 29.3273Z" fill="#3F3F3F"/>
</g>
</g>
<defs>
<clipPath id="clip0_635_172">
<rect width="48" height="48" fill="white"/>
</clipPath>
</defs>
</svg>
