<svg width="477" height="66" viewBox="0 0 477 66" fill="none" xmlns="http://www.w3.org/2000/svg">
<path d="M246.842 34.4473V31.4473" stroke="#3ACBAE" stroke-opacity="0.25" stroke-width="3" stroke-linecap="round"/>
<path d="M250.842 34.4473V31.4473" stroke="#3ACBAE" stroke-opacity="0.25" stroke-width="3" stroke-linecap="round"/>
<path d="M254.842 34.4473V31.4473" stroke="#3ACBAE" stroke-opacity="0.25" stroke-width="3" stroke-linecap="round"/>
<path d="M258.842 34.4473V31.4473" stroke="#3ACBAE" stroke-opacity="0.25" stroke-width="3" stroke-linecap="round"/>
<path d="M262.842 34.4473V31.4473" stroke="#3ACBAE" stroke-opacity="0.25" stroke-width="3" stroke-linecap="round"/>
<path d="M266.842 34.4473V31.4473" stroke="#3ACBAE" stroke-opacity="0.25" stroke-width="3" stroke-linecap="round"/>
<path d="M270.842 34.4473V31.4473" stroke="#3ACBAE" stroke-opacity="0.25" stroke-width="3" stroke-linecap="round"/>
<path d="M274.842 34.4473V31.4473" stroke="#3ACBAE" stroke-opacity="0.25" stroke-width="3" stroke-linecap="round"/>
<path d="M278.842 34.4473V31.4473" stroke="#3ACBAE" stroke-opacity="0.25" stroke-width="3" stroke-linecap="round"/>
<path d="M282.842 34.4473V31.4473" stroke="#3ACBAE" stroke-opacity="0.25" stroke-width="3" stroke-linecap="round"/>
<path d="M286.842 34.4473V31.4473" stroke="#3ACBAE" stroke-opacity="0.25" stroke-width="3" stroke-linecap="round"/>
<path d="M290.842 34.4473V31.4473" stroke="#3ACBAE" stroke-opacity="0.25" stroke-width="3" stroke-linecap="round"/>
<path d="M294.842 34.4473V31.4473" stroke="#3ACBAE" stroke-opacity="0.25" stroke-width="3" stroke-linecap="round"/>
<path d="M298.842 34.4473V31.4473" stroke="#3ACBAE" stroke-opacity="0.25" stroke-width="3" stroke-linecap="round"/>
<path d="M302.842 34.4473V31.4473" stroke="#3ACBAE" stroke-opacity="0.25" stroke-width="3" stroke-linecap="round"/>
<path d="M306.842 34.4473V31.4473" stroke="#3ACBAE" stroke-opacity="0.25" stroke-width="3" stroke-linecap="round"/>
<path d="M310.842 34.4473V31.4473" stroke="#3ACBAE" stroke-opacity="0.25" stroke-width="3" stroke-linecap="round"/>
<path d="M314.842 34.4473V31.4473" stroke="#3ACBAE" stroke-opacity="0.25" stroke-width="3" stroke-linecap="round"/>
<path d="M318.842 34.4473V31.4473" stroke="#3ACBAE" stroke-opacity="0.25" stroke-width="3" stroke-linecap="round"/>
<path d="M322.842 34.4473V31.4473" stroke="#3ACBAE" stroke-opacity="0.25" stroke-width="3" stroke-linecap="round"/>
<path d="M326.842 34.4473V31.4473" stroke="#3ACBAE" stroke-opacity="0.25" stroke-width="3" stroke-linecap="round"/>
<path d="M330.842 34.4473V31.4473" stroke="#3ACBAE" stroke-opacity="0.25" stroke-width="3" stroke-linecap="round"/>
<path d="M334.842 34.4473V31.4473" stroke="#3ACBAE" stroke-opacity="0.25" stroke-width="3" stroke-linecap="round"/>
<path d="M338.842 34.4473V31.4473" stroke="#3ACBAE" stroke-opacity="0.25" stroke-width="3" stroke-linecap="round"/>
<path d="M342.842 34.4473V31.4473" stroke="#3ACBAE" stroke-opacity="0.25" stroke-width="3" stroke-linecap="round"/>
<path d="M346.842 34.4473V31.4473" stroke="#3ACBAE" stroke-opacity="0.25" stroke-width="3" stroke-linecap="round"/>
<path d="M350.842 34.4473V31.4473" stroke="#3ACBAE" stroke-opacity="0.25" stroke-width="3" stroke-linecap="round"/>
<path d="M354.842 34.4473V31.4473" stroke="#3ACBAE" stroke-opacity="0.25" stroke-width="3" stroke-linecap="round"/>
<path d="M358.842 34.4473V31.4473" stroke="#3ACBAE" stroke-opacity="0.25" stroke-width="3" stroke-linecap="round"/>
<path d="M362.842 34.4473V31.4473" stroke="#3ACBAE" stroke-opacity="0.25" stroke-width="3" stroke-linecap="round"/>
<path d="M366.842 34.4473V31.4473" stroke="#3ACBAE" stroke-opacity="0.25" stroke-width="3" stroke-linecap="round"/>
<path d="M370.842 34.4473V31.4473" stroke="#3ACBAE" stroke-opacity="0.25" stroke-width="3" stroke-linecap="round"/>
<path d="M374.842 34.4473V31.4473" stroke="#3ACBAE" stroke-opacity="0.25" stroke-width="3" stroke-linecap="round"/>
<path d="M378.842 34.4473V31.4473" stroke="#3ACBAE" stroke-opacity="0.25" stroke-width="3" stroke-linecap="round"/>
<path d="M382.842 34.4473V31.4473" stroke="#3ACBAE" stroke-opacity="0.25" stroke-width="3" stroke-linecap="round"/>
<path d="M386.842 34.4473V31.4473" stroke="#3ACBAE" stroke-opacity="0.25" stroke-width="3" stroke-linecap="round"/>
<path d="M390.842 34.4473V31.4473" stroke="#3ACBAE" stroke-opacity="0.25" stroke-width="3" stroke-linecap="round"/>
<path d="M394.842 34.4473V31.4473" stroke="#3ACBAE" stroke-opacity="0.25" stroke-width="3" stroke-linecap="round"/>
<path d="M398.842 34.4473V31.4473" stroke="#3ACBAE" stroke-opacity="0.25" stroke-width="3" stroke-linecap="round"/>
<path d="M402.842 34.4473V31.4473" stroke="#3ACBAE" stroke-opacity="0.25" stroke-width="3" stroke-linecap="round"/>
<path d="M406.842 34.4473V31.4473" stroke="#3ACBAE" stroke-opacity="0.25" stroke-width="3" stroke-linecap="round"/>
<path d="M410.842 34.4473V31.4473" stroke="#3ACBAE" stroke-opacity="0.25" stroke-width="3" stroke-linecap="round"/>
<path d="M414.842 34.4473V31.4473" stroke="#3ACBAE" stroke-opacity="0.25" stroke-width="3" stroke-linecap="round"/>
<path d="M418.842 34.4473V31.4473" stroke="#3ACBAE" stroke-opacity="0.25" stroke-width="3" stroke-linecap="round"/>
<path d="M422.842 34.4473V31.4473" stroke="#3ACBAE" stroke-opacity="0.25" stroke-width="3" stroke-linecap="round"/>
<path d="M426.842 34.4473V31.4473" stroke="#3ACBAE" stroke-opacity="0.25" stroke-width="3" stroke-linecap="round"/>
<path d="M430.842 34.4473V31.4473" stroke="#3ACBAE" stroke-opacity="0.25" stroke-width="3" stroke-linecap="round"/>
<path d="M434.842 34.4473V31.4473" stroke="#3ACBAE" stroke-opacity="0.25" stroke-width="3" stroke-linecap="round"/>
<path d="M438.842 34.4473V31.4473" stroke="#3ACBAE" stroke-opacity="0.25" stroke-width="3" stroke-linecap="round"/>
<path d="M442.842 34.4473V31.4473" stroke="#3ACBAE" stroke-opacity="0.25" stroke-width="3" stroke-linecap="round"/>
<path d="M446.842 34.4473V31.4473" stroke="#3ACBAE" stroke-opacity="0.25" stroke-width="3" stroke-linecap="round"/>
<path d="M450.842 34.4473V31.4473" stroke="#3ACBAE" stroke-opacity="0.25" stroke-width="3" stroke-linecap="round"/>
<path d="M454.842 34.4473V31.4473" stroke="#3ACBAE" stroke-opacity="0.25" stroke-width="3" stroke-linecap="round"/>
<path d="M458.842 34.4473V31.4473" stroke="#3ACBAE" stroke-opacity="0.25" stroke-width="3" stroke-linecap="round"/>
<path d="M462.842 34.4473V31.4473" stroke="#3ACBAE" stroke-opacity="0.25" stroke-width="3" stroke-linecap="round"/>
<path d="M466.842 34.4473V31.4473" stroke="#3ACBAE" stroke-opacity="0.25" stroke-width="3" stroke-linecap="round"/>
<path d="M470.842 34.4473V31.4473" stroke="#3ACBAE" stroke-opacity="0.25" stroke-width="3" stroke-linecap="round"/>
<path d="M474.842 34.4473V31.4473" stroke="#3ACBAE" stroke-opacity="0.25" stroke-width="3" stroke-linecap="round"/>
<path d="M2 55.5V10.5" stroke="#3ACBAE" stroke-width="3" stroke-linecap="round"/>
<path d="M7 18V48" stroke="#3ACBAE" stroke-width="3" stroke-linecap="round"/>
<path d="M12 48V18" stroke="#3ACBAE" stroke-width="3" stroke-linecap="round"/>
<path d="M17 63V3" stroke="#3ACBAE" stroke-width="3" stroke-linecap="round"/>
<path d="M22 3V63" stroke="#3ACBAE" stroke-width="3" stroke-linecap="round"/>
<path d="M27 40.5V25.5" stroke="#3ACBAE" stroke-width="3" stroke-linecap="round"/>
<path d="M32 25.5V40.5" stroke="#3ACBAE" stroke-width="3" stroke-linecap="round"/>
<path d="M37 52V14" stroke="#3ACBAE" stroke-width="3" stroke-linecap="round"/>
<path d="M42 10.5V55.5" stroke="#3ACBAE" stroke-width="3" stroke-linecap="round"/>
<path d="M47 44V22" stroke="#3ACBAE" stroke-width="3" stroke-linecap="round"/>
<path d="M52 37V29" stroke="#3ACBAE" stroke-width="3" stroke-linecap="round"/>
<path d="M57 63V3" stroke="#3ACBAE" stroke-width="3" stroke-linecap="round"/>
<path d="M62 14V52" stroke="#3ACBAE" stroke-width="3" stroke-linecap="round"/>
<path d="M67 48V18" stroke="#3ACBAE" stroke-width="3" stroke-linecap="round"/>
<path d="M72 55.5V10.5" stroke="#3ACBAE" stroke-width="3" stroke-linecap="round"/>
<path d="M77 25.5V40.5" stroke="#3ACBAE" stroke-width="3" stroke-linecap="round"/>
<path d="M82 37V29" stroke="#3ACBAE" stroke-width="3" stroke-linecap="round"/>
<path d="M87 7V59" stroke="#3ACBAE" stroke-width="3" stroke-linecap="round"/>
<path d="M92 40.5V25.5" stroke="#3ACBAE" stroke-width="3" stroke-linecap="round"/>
<path d="M97 59V7" stroke="#3ACBAE" stroke-width="3" stroke-linecap="round"/>
<path d="M102 18V48" stroke="#3ACBAE" stroke-width="3" stroke-linecap="round"/>
<path d="M107 52V14" stroke="#3ACBAE" stroke-width="3" stroke-linecap="round"/>
<path d="M112 44V22" stroke="#3ACBAE" stroke-width="3" stroke-linecap="round"/>
<path d="M117 55.5V10.5" stroke="#3ACBAE" stroke-width="3" stroke-linecap="round"/>
<path d="M122 3V63" stroke="#3ACBAE" stroke-width="3" stroke-linecap="round"/>
<path d="M127 48V18" stroke="#3ACBAE" stroke-width="3" stroke-linecap="round"/>
<path d="M132 29V37" stroke="#3ACBAE" stroke-width="3" stroke-linecap="round"/>
<path d="M137 37V29" stroke="#3ACBAE" stroke-width="3" stroke-linecap="round"/>
<path d="M142 10.5V55.5" stroke="#3ACBAE" stroke-width="3" stroke-linecap="round"/>
<path d="M147 44V22" stroke="#3ACBAE" stroke-width="3" stroke-linecap="round"/>
<path d="M152 63V3" stroke="#3ACBAE" stroke-width="3" stroke-linecap="round"/>
<path d="M157 18V48" stroke="#3ACBAE" stroke-width="3" stroke-linecap="round"/>
<path d="M162 52V14" stroke="#3ACBAE" stroke-width="3" stroke-linecap="round"/>
<path d="M167 25.5V40.5" stroke="#3ACBAE" stroke-width="3" stroke-linecap="round"/>
<path d="M172 40.5V25.5" stroke="#3ACBAE" stroke-width="3" stroke-linecap="round"/>
<path d="M177 7V59" stroke="#3ACBAE" stroke-width="3" stroke-linecap="round"/>
<path d="M182 59V7" stroke="#3ACBAE" stroke-width="3" stroke-linecap="round"/>
<path d="M187 14V52" stroke="#3ACBAE" stroke-width="3" stroke-linecap="round"/>
<path d="M192 55.5V10.5" stroke="#3ACBAE" stroke-width="3" stroke-linecap="round"/>
<path d="M197 37V29" stroke="#3ACBAE" stroke-width="3" stroke-linecap="round"/>
<path d="M202 44V22" stroke="#3ACBAE" stroke-width="3" stroke-linecap="round"/>
<path d="M207 3V63" stroke="#3ACBAE" stroke-width="3" stroke-linecap="round"/>
<path d="M212 40.5V25.5" stroke="#3ACBAE" stroke-width="3" stroke-linecap="round"/>
<path d="M217 25.5V40.5" stroke="#3ACBAE" stroke-width="3" stroke-linecap="round"/>
<path d="M222 52V14" stroke="#3ACBAE" stroke-width="3" stroke-linecap="round"/>
<path d="M227 10.5V55.5" stroke="#3ACBAE" stroke-width="3" stroke-linecap="round"/>
<path d="M232 63V3" stroke="#3ACBAE" stroke-width="3" stroke-linecap="round"/>
<path d="M237 44V22" stroke="#3ACBAE" stroke-width="3" stroke-linecap="round"/>
<path d="M242 37V29" stroke="#3ACBAE" stroke-width="3" stroke-linecap="round"/>
</svg>
