<svg width="121" height="29" viewBox="0 0 121 29" fill="none" xmlns="http://www.w3.org/2000/svg">
<path d="M107.37 21.9294C107.214 21.9294 107.082 21.8767 106.973 21.7713C106.864 21.6659 106.81 21.5379 106.81 21.3873V6.68238C106.81 6.51673 106.864 6.38121 106.973 6.27579C107.082 6.17038 107.214 6.11768 107.37 6.11768H113.06C114.63 6.11768 115.921 6.35109 116.931 6.81791C117.958 7.28474 118.727 7.97744 119.24 8.89603C119.769 9.81462 120.041 10.9365 120.056 12.2617C120.088 12.9243 120.103 13.5116 120.103 14.0236C120.103 14.5356 120.088 15.1153 120.056 15.7629C120.025 17.1633 119.761 18.3229 119.264 19.2414C118.766 20.145 118.012 20.8226 117.001 21.2744C116.006 21.7111 114.731 21.9294 113.177 21.9294H107.37ZM110.052 19.3318H113.06C113.931 19.3318 114.638 19.2113 115.182 18.9704C115.726 18.7294 116.123 18.3454 116.372 17.8184C116.636 17.2763 116.776 16.5685 116.791 15.6951C116.807 15.2433 116.815 14.8518 116.815 14.5205C116.83 14.1741 116.83 13.8353 116.815 13.504C116.815 13.1577 116.807 12.7661 116.791 12.3294C116.76 11.0946 116.442 10.1836 115.835 9.59627C115.229 9.00897 114.265 8.71532 112.943 8.71532H110.052V19.3318Z" fill="#3ACBAE"/>
<path d="M94.3186 21.9294C94.1627 21.9294 94.0302 21.8767 93.9211 21.7713C93.812 21.6659 93.7574 21.5379 93.7574 21.3873V6.68238C93.7574 6.51673 93.812 6.38121 93.9211 6.27579C94.0302 6.17038 94.1627 6.11768 94.3186 6.11768H104.607C104.778 6.11768 104.919 6.17038 105.028 6.27579C105.137 6.38121 105.192 6.51673 105.192 6.68238V8.17321C105.192 8.32379 105.137 8.45179 105.028 8.55721C104.919 8.66262 104.778 8.71532 104.607 8.71532H96.9141V12.7134H104.093C104.264 12.7134 104.404 12.7661 104.513 12.8716C104.623 12.9619 104.677 13.0899 104.677 13.2556V14.656C104.677 14.8217 104.623 14.9572 104.513 15.0626C104.404 15.153 104.264 15.1981 104.093 15.1981H96.9141V19.3318H104.794C104.966 19.3318 105.106 19.3845 105.215 19.4899C105.324 19.5953 105.379 19.7309 105.379 19.8965V21.3873C105.379 21.5379 105.324 21.6659 105.215 21.7713C105.106 21.8767 104.966 21.9294 104.794 21.9294H94.3186Z" fill="#3ACBAE"/>
<path d="M77.668 21.9294C77.4973 21.9294 77.3577 21.8767 77.2492 21.7713C77.1406 21.6659 77.0863 21.5379 77.0863 21.3873V6.68238C77.0863 6.51673 77.1406 6.38121 77.2492 6.27579C77.3577 6.17038 77.4973 6.11768 77.668 6.11768H79.506C79.7232 6.11768 79.8861 6.17791 79.9946 6.29838C80.1032 6.40379 80.173 6.48662 80.204 6.54685L84.6945 14.6786L89.2316 6.54685C89.2626 6.48662 89.3324 6.40379 89.441 6.29838C89.5495 6.17791 89.7124 6.11768 89.9296 6.11768H91.7444C91.915 6.11768 92.0546 6.17038 92.1632 6.27579C92.2718 6.38121 92.326 6.51673 92.326 6.68238V21.3873C92.326 21.5379 92.2718 21.6659 92.1632 21.7713C92.0546 21.8767 91.915 21.9294 91.7444 21.9294H89.79C89.6193 21.9294 89.4797 21.8767 89.3712 21.7713C89.2781 21.6659 89.2316 21.5379 89.2316 21.3873V11.6066L85.9742 17.6377C85.8967 17.7732 85.7958 17.8937 85.6717 17.9991C85.5476 18.0894 85.3848 18.1346 85.1831 18.1346H84.2292C84.012 18.1346 83.8414 18.0894 83.7173 17.9991C83.6087 17.8937 83.5157 17.7732 83.4381 17.6377L80.1808 11.6066V21.3873C80.1808 21.5379 80.1265 21.6659 80.0179 21.7713C79.9093 21.8767 79.7775 21.9294 79.6224 21.9294H77.668Z" fill="#3ACBAE"/>
<path d="M30.4795 21.6941C30.3268 21.6941 30.1971 21.6414 30.0902 21.536C29.9833 21.4306 29.9299 21.3026 29.9299 21.152V6.44703C29.9299 6.28138 29.9833 6.14585 30.0902 6.04044C30.1971 5.93503 30.3268 5.88232 30.4795 5.88232H36.4113C38.2588 5.88232 39.7169 6.30397 40.7857 7.14727C41.8545 7.99056 42.3889 9.21785 42.3889 10.8291C42.3889 11.9435 42.1064 12.8696 41.5415 13.6075C40.9918 14.3454 40.2513 14.88 39.3199 15.2113L42.6637 20.9713C42.7095 21.0616 42.7324 21.1444 42.7324 21.2197C42.7324 21.3553 42.679 21.4682 42.5721 21.5586C42.4805 21.6489 42.3736 21.6941 42.2515 21.6941H40.1673C39.9078 21.6941 39.7093 21.6263 39.5719 21.4908C39.4344 21.3553 39.3276 21.2197 39.2512 21.0842L36.2968 15.7308H33.1133V21.152C33.1133 21.3026 33.0599 21.4306 32.953 21.536C32.8614 21.6414 32.7316 21.6941 32.5637 21.6941H30.4795ZM33.1133 13.1783H36.3426C37.274 13.1783 37.9687 12.975 38.4267 12.5684C38.8848 12.1468 39.1138 11.5595 39.1138 10.8066C39.1138 10.0536 38.8848 9.46632 38.4267 9.04468C37.9839 8.60797 37.2892 8.38962 36.3426 8.38962H33.1133V13.1783Z" fill="#3F3F3F"/>
<path d="M17.427 21.6941C17.2743 21.6941 17.1445 21.6414 17.0376 21.536C16.9307 21.4306 16.8773 21.3026 16.8773 21.152V6.44703C16.8773 6.28138 16.9307 6.14585 17.0376 6.04044C17.1445 5.93503 17.2743 5.88232 17.427 5.88232H27.5041C27.672 5.88232 27.8095 5.93503 27.9163 6.04044C28.0232 6.14585 28.0767 6.28138 28.0767 6.44703V7.93785C28.0767 8.08844 28.0232 8.21644 27.9163 8.32185C27.8095 8.42727 27.672 8.47997 27.5041 8.47997H19.9691V12.4781H27.0002C27.1682 12.4781 27.3056 12.5308 27.4125 12.6362C27.5194 12.7266 27.5728 12.8546 27.5728 13.0202V14.4207C27.5728 14.5863 27.5194 14.7219 27.4125 14.8273C27.3056 14.9176 27.1682 14.9628 27.0002 14.9628H19.9691V19.0964H27.6873C27.8553 19.0964 27.9927 19.1491 28.0996 19.2546C28.2064 19.36 28.2599 19.4955 28.2599 19.6611V21.152C28.2599 21.3026 28.2064 21.4306 28.0996 21.536C27.9927 21.6414 27.8553 21.6941 27.6873 21.6941H17.427Z" fill="#3F3F3F"/>
<path d="M0.480954 21.6941C0.358807 21.6941 0.244294 21.6489 0.137415 21.5586C0.0458051 21.4682 0 21.3553 0 21.2197C0 21.1595 0.0152684 21.0917 0.0458051 21.0164L5.56533 6.44703C5.61113 6.29644 5.69511 6.16844 5.81726 6.06303C5.95467 5.94256 6.13789 5.88232 6.36692 5.88232H8.8633C9.09233 5.88232 9.26791 5.94256 9.39006 6.06303C9.51221 6.16844 9.60382 6.29644 9.66489 6.44703L15.1844 21.0164C15.1997 21.0917 15.2073 21.1595 15.2073 21.2197C15.2073 21.3553 15.1615 21.4682 15.0699 21.5586C14.9783 21.6489 14.8714 21.6941 14.7493 21.6941H12.7567C12.543 21.6941 12.3827 21.6489 12.2758 21.5586C12.1842 21.4531 12.1231 21.3553 12.0926 21.2649L11.0161 18.5091H4.21408L3.13765 21.2649C3.10712 21.3553 3.03841 21.4531 2.93153 21.5586C2.83992 21.6489 2.68724 21.6941 2.47348 21.6941H0.480954ZM5.01567 15.9115H10.2146L7.60366 8.93174L5.01567 15.9115Z" fill="#3F3F3F"/>
<g clip-path="url(#clip0_638_22)">
<path fill-rule="evenodd" clip-rule="evenodd" d="M55.4672 11.7647C55.9283 11.7647 56.3022 12.1703 56.3022 12.6706V15.8C56.3022 16.3003 55.9283 16.7059 55.4672 16.7059C55.006 16.7059 54.6322 16.3003 54.6322 15.8V12.6706C54.6322 12.1703 55.006 11.7647 55.4672 11.7647Z" fill="#3ACBAE"/>
<path fill-rule="evenodd" clip-rule="evenodd" d="M58.33 10.1177C58.7912 10.1177 59.165 10.5003 59.165 10.9723V17.4984C59.165 17.9704 58.7912 18.353 58.33 18.353C57.8689 18.353 57.495 17.9704 57.495 17.4984V10.9723C57.495 10.5003 57.8689 10.1177 58.33 10.1177Z" fill="#3ACBAE"/>
<path fill-rule="evenodd" clip-rule="evenodd" d="M60.9543 10.8236C61.4154 10.8236 61.7893 11.2143 61.7893 11.6963V16.7743C61.7893 17.2563 61.4154 17.6471 60.9543 17.6471C60.4931 17.6471 60.1193 17.2563 60.1193 16.7743V11.6963C60.1193 11.2143 60.4931 10.8236 60.9543 10.8236Z" fill="#3ACBAE"/>
<path fill-rule="evenodd" clip-rule="evenodd" d="M63.8171 11.7647C64.2782 11.7647 64.6521 12.1703 64.6521 12.6706V15.8C64.6521 16.3003 64.2782 16.7059 63.8171 16.7059C63.3559 16.7059 62.9821 16.3003 62.9821 15.8V12.6706C62.9821 12.1703 63.3559 11.7647 63.8171 11.7647Z" fill="#3ACBAE"/>
<path fill-rule="evenodd" clip-rule="evenodd" d="M60.4198 24.6757C62.1082 24.6757 63.4778 23.3634 63.4778 21.7434C63.4778 20.0143 64.2832 18.7953 65.3495 18.0518C66.3422 17.359 67.4903 17.1217 68.2801 17.1019H68.2998H68.3195C70.0079 17.1019 71.3775 15.7896 71.3775 14.1696C71.3775 12.5496 70.0089 11.2374 68.3195 11.2374C67.4747 11.2374 66.7905 10.5812 66.7905 9.77126C66.7905 8.96127 67.4747 8.30513 68.3195 8.30513C71.6963 8.30513 74.4344 10.9307 74.4344 14.1686C74.4344 17.4066 71.7098 20.0192 68.3433 20.0321C68.0275 20.0431 67.5286 20.1562 67.1476 20.4213C66.834 20.6396 66.5348 20.996 66.5348 21.7425C66.5348 24.9804 63.7967 27.606 60.4198 27.606C57.043 27.606 54.3049 24.9804 54.3049 21.7425C54.3049 20.9325 54.9891 20.2763 55.8339 20.2763C56.6786 20.2763 57.3629 20.9325 57.3629 21.7425C57.3629 23.3614 58.7314 24.6747 60.4209 24.6747L60.4198 24.6757Z" fill="#3ACBAE"/>
<path fill-rule="evenodd" clip-rule="evenodd" d="M52.7334 18.3649C52.7334 19.1749 52.0491 19.8311 51.2044 19.8311C47.8276 19.8311 45.0895 17.2055 45.0895 13.9676C45.0895 10.7296 47.7365 8.19239 51.0346 8.10603C51.0626 8.10504 51.0905 8.10405 51.1195 8.10405C51.9322 8.10405 52.3245 7.80427 52.5647 7.48663C52.8587 7.09851 52.9798 6.59127 52.9881 6.27561C52.9881 6.26072 52.9881 6.24683 52.9901 6.23194C53.0792 3.0684 55.7821 0.530231 59.103 0.530231C62.424 0.530231 65.218 3.15576 65.218 6.39374C65.218 7.20373 64.5337 7.85986 63.689 7.85986C62.8443 7.85986 62.16 7.20373 62.16 6.39374C62.16 4.77474 60.7914 3.46149 59.102 3.46149C57.4125 3.46149 56.044 4.77375 56.044 6.39374C56.044 6.46124 56.0388 6.52675 56.0305 6.59226C55.9684 7.34468 55.6972 8.33831 55.0367 9.21084C54.2728 10.2184 53.0367 10.9867 51.2903 11.0343C51.2614 11.0353 51.2334 11.0363 51.2034 11.0363C49.515 11.0363 48.1454 12.3486 48.1454 13.9685C48.1454 15.5885 49.5139 16.9008 51.2034 16.9008C52.0481 16.9008 52.7324 17.5569 52.7324 18.3669L52.7334 18.3649Z" fill="#3F3F3F"/>
</g>
<defs>
<clipPath id="clip0_638_22">
<rect width="29.3439" height="28.1372" fill="white" transform="matrix(-1 0 0 -1 74.4334 28.1372)"/>
</clipPath>
</defs>
</svg>
